<?xml version="1.0" encoding="UTF-8" standalone="no"?>
<svg
   xmlns:dc="http://purl.org/dc/elements/1.1/"
   xmlns:cc="http://creativecommons.org/ns#"
   xmlns:rdf="http://www.w3.org/1999/02/22-rdf-syntax-ns#"
   xmlns:svg="http://www.w3.org/2000/svg"
   xmlns="http://www.w3.org/2000/svg"
   xmlns:sodipodi="http://sodipodi.sourceforge.net/DTD/sodipodi-0.dtd"
   xmlns:inkscape="http://www.inkscape.org/namespaces/inkscape"
   width="850"
   height="100%"
   viewBox="0 0 253 750"
   version="1.1"
   id="svg3914"
   sodipodi:docname="optimized_bus_map_allbuses.svg"
   inkscape:version="0.92.2 2405546, 2018-03-11"
   style="stroke-linejoin:round">
  <metadata
     id="metadata3920">
    <rdf:RDF>
      <cc:Work
         rdf:about="">
        <dc:format>image/svg+xml</dc:format>
        <dc:type
           rdf:resource="http://purl.org/dc/dcmitype/StillImage" />
        <dc:title />
      </cc:Work>
    </rdf:RDF>
  </metadata>
  <defs
     id="defs3918" />
  <sodipodi:namedview
     pagecolor="#ffffff"
     bordercolor="#666666"
     borderopacity="1"
     objecttolerance="10"
     gridtolerance="10"
     guidetolerance="10"
     inkscape:pageopacity="0"
     inkscape:pageshadow="2"
     inkscape:window-width="1920"
     inkscape:window-height="1008"
     id="namedview3916"
     showgrid="false"
     inkscape:zoom="0.70710678"
     inkscape:cx="261.84435"
     inkscape:cy="372.31399"
     inkscape:window-x="0"
     inkscape:window-y="41"
     inkscape:window-maximized="1"
     inkscape:current-layer="svg3914" />
  <style
     id="style3881">.a{fill:#ddd;}</style>
  <g
     id="front_row"
     transform="translate(-297.96138,83.96192)">
    <path
       id="_8"
       d="m 99.4,639.3 40,-23.1 c 3.7,-2.1 8.4,-0.9 10.5,2.8 l 7.7,13.3 c 2.1,3.7 0.9,8.4 -2.8,10.5 l -40,23.1 c -3.7,2.1 -8.4,0.9 -10.5,-2.8 l -7.7,-13.3 c -2.1,-3.7 -0.9,-8.4 2.8,-10.5 z"
       class="a"
       inkscape:connector-curvature="0"
       style="fill:#dddddd" />
    <path
       id="_9"
       d="m 99.4,587.5 40,-23.1 c 3.7,-2.1 8.4,-0.9 10.5,2.8 l 7.7,13.3 c 2.1,3.7 0.9,8.4 -2.8,10.5 l -40,23.1 c -3.7,2.1 -8.4,0.9 -10.5,-2.8 L 96.6,598 c -2.1,-3.7 -0.9,-8.4 2.8,-10.5 z"
       class="a"
       inkscape:connector-curvature="0"
       style="fill:#dddddd" />
    <path
       id="_10"
       d="m 99.4,535.7 40,-23.1 c 3.7,-2.1 8.4,-0.9 10.5,2.8 l 7.7,13.3 c 2.1,3.7 0.9,8.4 -2.8,10.5 l -40,23.1 c -3.7,2.1 -8.4,0.9 -10.5,-2.8 l -7.7,-13.3 c -2.1,-3.7 -0.9,-8.4 2.8,-10.5 z"
       class="a"
       inkscape:connector-curvature="0"
       style="fill:#dddddd" />
    <path
       id="_11"
       d="m 99.4,483.9 40,-23.1 c 3.7,-2.1 8.4,-0.9 10.5,2.8 l 7.7,13.3 c 2.1,3.7 0.9,8.4 -2.8,10.5 l -40,23.1 c -3.7,2.1 -8.4,0.9 -10.5,-2.8 l -7.7,-13.3 c -2.1,-3.7 -0.9,-8.4 2.8,-10.5 z"
       class="a"
       inkscape:connector-curvature="0"
       style="fill:#dddddd" />
    <path
       id="_12"
       d="m 99.4,435.3 40,-23.1 c 3.7,-2.1 8.4,-0.9 10.5,2.8 l 7.7,13.3 c 2.1,3.7 0.9,8.4 -2.8,10.5 l -40,23.1 c -3.7,2.1 -8.4,0.9 -10.5,-2.8 l -7.7,-13.3 c -2.1,-3.7 -0.9,-8.4 2.8,-10.5 z"
       class="a"
       inkscape:connector-curvature="0"
       style="fill:#dddddd" />
    <path
       id="_13"
       d="m 99.4,383.5 40,-23.1 c 3.7,-2.1 8.4,-0.9 10.5,2.8 l 7.7,13.3 c 2.1,3.7 0.9,8.4 -2.8,10.5 l -40,23.1 c -3.7,2.1 -8.4,0.9 -10.5,-2.8 L 96.6,394 c -2.1,-3.7 -0.9,-8.4 2.8,-10.5 z"
       class="a"
       inkscape:connector-curvature="0"
       style="fill:#dddddd" />
    <path
       id="_14"
       d="m 99.4,331.7 40,-23.1 c 3.7,-2.1 8.4,-0.9 10.5,2.8 l 7.7,13.3 c 2.1,3.7 0.9,8.4 -2.8,10.5 l -40,23.1 c -3.7,2.1 -8.4,0.9 -10.5,-2.8 l -7.7,-13.3 c -2.1,-3.7 -0.9,-8.4 2.8,-10.5 z"
       class="a"
       inkscape:connector-curvature="0"
       style="fill:#dddddd" />
    <path
       id="_15"
       d="m 99.4,279.9 40,-23.1 c 3.7,-2.1 8.4,-0.9 10.5,2.8 l 7.7,13.3 c 2.1,3.7 0.9,8.4 -2.8,10.5 l -40,23.1 c -3.7,2.1 -8.4,0.9 -10.5,-2.8 l -7.7,-13.3 c -2.1,-3.7 -0.9,-8.4 2.8,-10.5 z"
       class="a"
       inkscape:connector-curvature="0"
       style="fill:#dddddd" />
    <path
       id="_16"
       d="m 99.4,228.1 40,-23.1 c 3.7,-2.1 8.4,-0.9 10.5,2.8 l 7.7,13.3 c 2.1,3.7 0.9,8.4 -2.8,10.5 l -40,23.1 c -3.7,2.1 -8.4,0.9 -10.5,-2.8 l -7.7,-13.3 c -2.1,-3.7 -0.9,-8.4 2.8,-10.5 z"
       class="a"
       inkscape:connector-curvature="0"
       style="fill:#dddddd" />
    <path
       id="_17"
       d="m 99.4,179.5 40,-23.1 c 3.7,-2.1 8.4,-0.9 10.5,2.8 l 7.7,13.3 c 2.1,3.7 0.9,8.4 -2.8,10.5 l -40,23.1 c -3.7,2.1 -8.4,0.9 -10.5,-2.8 L 96.6,190 c -2.1,-3.7 -0.9,-8.4 2.8,-10.5 z"
       class="a"
       inkscape:connector-curvature="0"
       style="fill:#dddddd" />
    <path
       id="_18"
       d="m 99.4,127.7 40,-23.1 c 3.7,-2.1 8.4,-0.9 10.5,2.8 l 7.7,13.3 c 2.1,3.7 0.9,8.4 -2.8,10.5 l -40,23.1 c -3.7,2.1 -8.4,0.9 -10.5,-2.8 l -7.7,-13.3 c -2.1,-3.7 -0.9,-8.4 2.8,-10.5 z"
       class="a"
       inkscape:connector-curvature="0"
       style="fill:#dddddd" />
    <path
       id="_19"
       d="m 99.4,75.9 40,-23.1 c 3.7,-2.1 8.4,-0.9 10.5,2.8 l 7.7,13.3 c 2.1,3.7 0.9,8.4 -2.8,10.5 l -40,23.1 c -3.7,2.1 -8.4,0.9 -10.5,-2.8 L 96.6,86.4 C 94.5,82.7 95.7,78 99.4,75.9 Z"
       class="a"
       inkscape:connector-curvature="0"
       style="fill:#dddddd" />
    <path
       id="_20"
       d="M 99.4,24.1 139.4,1 c 3.7,-2.1 8.4,-0.9 10.5,2.8 l 7.7,13.3 c 2.1,3.7 0.9,8.4 -2.8,10.5 l -40,23.1 c -3.7,2.1 -8.4,0.9 -10.5,-2.8 L 96.6,34.6 c -2.1,-3.7 -0.9,-8.4 2.8,-10.5 z"
       class="a"
       inkscape:connector-curvature="0"
       style="fill:#dddddd" />
  </g>
  <g
     id="sidewalk"
     transform="translate(-297.96138,81.96192)">
    <path
       id="_7"
       d="M 0.4,138.1 V 91.9 c 0,-4.2 3.4,-7.7 7.7,-7.7 h 15.4 c 4.2,0 7.7,3.4 7.7,7.7 v 46.2 c 0,4.2 -3.4,7.7 -7.7,7.7 H 8.1 c -4.2,0 -7.7,-3.4 -7.7,-7.7 z"
       class="a"
       inkscape:connector-curvature="0"
       style="fill:#dddddd" />
    <path
       id="_6"
       d="m 0.4,210 v -46.2 c 0,-4.2 3.4,-7.7 7.7,-7.7 h 15.4 c 4.2,0 7.7,3.4 7.7,7.7 V 210 c 0,4.2 -3.4,7.7 -7.7,7.7 H 8.1 c -4.2,0 -7.7,-3.4 -7.7,-7.7 z"
       class="a"
       inkscape:connector-curvature="0"
       style="fill:#dddddd" />
    <path
       id="_5"
       d="m 0.4,281.8 v -46.2 c 0,-4.2 3.4,-7.7 7.7,-7.7 h 15.4 c 4.2,0 7.7,3.5 7.7,7.7 v 46.2 c 0,4.2 -3.4,7.7 -7.7,7.7 H 8.1 c -4.2,0 -7.7,-3.4 -7.7,-7.7 z"
       class="a"
       inkscape:connector-curvature="0"
       style="fill:#dddddd" />
    <path
       id="_4"
       d="m 0.4,353.6 v -46.2 c 0,-4.2 3.4,-7.7 7.7,-7.7 h 15.4 c 4.2,0 7.7,3.4 7.7,7.7 v 46.2 c 0,4.2 -3.4,7.7 -7.7,7.7 H 8.1 c -4.2,0 -7.7,-3.4 -7.7,-7.7 z"
       class="a"
       inkscape:connector-curvature="0"
       style="fill:#dddddd" />
    <path
       id="_3"
       d="m 0.4,425.5 v -46.2 c 0,-4.2 3.4,-7.7 7.7,-7.7 h 15.4 c 4.2,0 7.7,3.4 7.7,7.7 v 46.2 c 0,4.2 -3.4,7.7 -7.7,7.7 H 8.1 c -4.2,0 -7.7,-3.4 -7.7,-7.7 z"
       class="a"
       inkscape:connector-curvature="0"
       style="fill:#dddddd" />
    <path
       id="_2"
       d="m 0.4,497.3 v -46.2 c 0,-4.2 3.4,-7.7 7.7,-7.7 h 15.4 c 4.2,0 7.7,3.4 7.7,7.7 v 46.2 c 0,4.2 -3.4,7.7 -7.7,7.7 H 8.1 c -4.2,0 -7.7,-3.4 -7.7,-7.7 z"
       class="a"
       inkscape:connector-curvature="0"
       style="fill:#dddddd" />
    <path
       id="_1"
       d="m 0.4,569.1 v -46.2 c 0,-4.2 3.4,-7.7 7.7,-7.7 h 15.4 c 4.2,0 7.7,3.4 7.7,7.7 v 46.2 c 0,4.2 -3.4,7.7 -7.7,7.7 H 8.1 c -4.2,0 -7.7,-3.4 -7.7,-7.7 z"
       class="a"
       inkscape:connector-curvature="0"
       style="fill:#dddddd" />
  </g>
  <g
     id="front_school"
     transform="rotate(90,279.61721,280.8134)">
    <path
       style="fill:#dddddd"
       inkscape:connector-curvature="0"
       id="_36"
       d="m 0.4,63.923736 v -46.2 c 0,-4.2 3.4,-7.7 7.7,-7.7 h 15.4 c 4.2,0 7.7,3.4 7.7,7.7 v 46.2 c 0,4.2 -3.4,7.7 -7.7,7.7 H 8.1 c -4.2,0 -7.7,-3.4 -7.7,-7.7 z"
       class="a" />
    <path
       class="a"
       d="M 0.4,138.1 V 91.9 c 0,-4.2 3.4,-7.7 7.7,-7.7 h 15.4 c 4.2,0 7.7,3.4 7.7,7.7 v 46.2 c 0,4.2 -3.4,7.7 -7.7,7.7 H 8.1 c -4.2,0 -7.7,-3.4 -7.7,-7.7 z"
       id="_35"
       inkscape:connector-curvature="0"
       style="fill:#dddddd" />
    <path
       class="a"
       d="m 0.4,210 v -46.2 c 0,-4.2 3.4,-7.7 7.7,-7.7 h 15.4 c 4.2,0 7.7,3.4 7.7,7.7 V 210 c 0,4.2 -3.4,7.7 -7.7,7.7 H 8.1 c -4.2,0 -7.7,-3.4 -7.7,-7.7 z"
       id="_34"
       inkscape:connector-curvature="0"
       style="fill:#dddddd" />
    <path
       class="a"
       d="m 0.4,281.8 v -46.2 c 0,-4.2 3.4,-7.7 7.7,-7.7 h 15.4 c 4.2,0 7.7,3.5 7.7,7.7 v 46.2 c 0,4.2 -3.4,7.7 -7.7,7.7 H 8.1 c -4.2,0 -7.7,-3.4 -7.7,-7.7 z"
       id="_33"
       inkscape:connector-curvature="0"
       style="fill:#dddddd" />
    <path
       class="a"
       d="m 0.4,353.6 v -46.2 c 0,-4.2 3.4,-7.7 7.7,-7.7 h 15.4 c 4.2,0 7.7,3.4 7.7,7.7 v 46.2 c 0,4.2 -3.4,7.7 -7.7,7.7 H 8.1 c -4.2,0 -7.7,-3.4 -7.7,-7.7 z"
       id="_32"
       inkscape:connector-curvature="0"
       style="fill:#dddddd" />
    <path
       class="a"
       d="m 0.4,425.5 v -46.2 c 0,-4.2 3.4,-7.7 7.7,-7.7 h 15.4 c 4.2,0 7.7,3.4 7.7,7.7 v 46.2 c 0,4.2 -3.4,7.7 -7.7,7.7 H 8.1 c -4.2,0 -7.7,-3.4 -7.7,-7.7 z"
       id="_31"
       inkscape:connector-curvature="0"
       style="fill:#dddddd" />
    <path
       class="a"
       d="m 0.4,497.3 v -46.2 c 0,-4.2 3.4,-7.7 7.7,-7.7 h 15.4 c 4.2,0 7.7,3.4 7.7,7.7 v 46.2 c 0,4.2 -3.4,7.7 -7.7,7.7 H 8.1 c -4.2,0 -7.7,-3.4 -7.7,-7.7 z"
       id="_30"
       inkscape:connector-curvature="0"
       style="fill:#dddddd" />
    <path
       class="a"
       d="m 0.4,569.1 v -46.2 c 0,-4.2 3.4,-7.7 7.7,-7.7 h 15.4 c 4.2,0 7.7,3.4 7.7,7.7 v 46.2 c 0,4.2 -3.4,7.7 -7.7,7.7 H 8.1 c -4.2,0 -7.7,-3.4 -7.7,-7.7 z"
       id="_29"
       inkscape:connector-curvature="0"
       style="fill:#dddddd" />
  </g>
  <g
     id="back_row"
     transform="translate(-297.96138,81.96192)">
    <path
       id="_21"
       d="m 193.8,593.5 40,-23.1 c 3.7,-2.1 8.4,-0.9 10.5,2.8 l 7.7,13.3 c 2.1,3.7 0.9,8.4 -2.8,10.5 l -40,23.1 c -3.7,2.1 -8.4,0.9 -10.5,-2.8 L 191,604 c -2.1,-3.7 -0.9,-8.4 2.8,-10.5 z"
       class="a"
       inkscape:connector-curvature="0"
       style="fill:#dddddd" />
    <path
       id="_22"
       d="m 193.8,541.7 40,-23.1 c 3.7,-2.1 8.4,-0.9 10.5,2.8 l 7.7,13.3 c 2.1,3.7 0.9,8.4 -2.8,10.5 l -40,23.1 c -3.7,2.1 -8.4,0.9 -10.5,-2.8 L 191,552.2 c -2.1,-3.7 -0.9,-8.4 2.8,-10.5 z"
       class="a"
       inkscape:connector-curvature="0"
       style="fill:#dddddd" />
    <path
       id="_23"
       d="m 193.8,489.9 40,-23.1 c 3.7,-2.1 8.4,-0.9 10.5,2.8 l 7.7,13.3 c 2.1,3.7 0.9,8.4 -2.8,10.5 l -40,23.1 c -3.7,2.1 -8.4,0.9 -10.5,-2.8 L 191,500.4 c -2.1,-3.7 -0.9,-8.4 2.8,-10.5 z"
       class="a"
       inkscape:connector-curvature="0"
       style="fill:#dddddd" />
    <path
       id="_24"
       d="m 193.8,438.1 40,-23.1 c 3.7,-2.1 8.4,-0.9 10.5,2.8 l 7.7,13.3 c 2.1,3.7 0.9,8.4 -2.8,10.5 l -40,23.1 c -3.7,2.1 -8.4,0.9 -10.5,-2.8 L 191,448.6 c -2.1,-3.7 -0.9,-8.4 2.8,-10.5 z"
       class="a"
       inkscape:connector-curvature="0"
       style="fill:#dddddd" />
    <path
       id="_25"
       d="m 193.8,389.5 40,-23.1 c 3.7,-2.1 8.4,-0.9 10.5,2.8 l 7.7,13.3 c 2.1,3.7 0.9,8.4 -2.8,10.5 l -40,23.1 c -3.7,2.1 -8.4,0.9 -10.5,-2.8 L 191,400 c -2.1,-3.7 -0.9,-8.4 2.8,-10.5 z"
       class="a"
       inkscape:connector-curvature="0"
       style="fill:#dddddd" />
    <path
       id="_26"
       d="m 193.8,337.7 40,-23.1 c 3.7,-2.1 8.4,-0.9 10.5,2.8 l 7.7,13.3 c 2.1,3.7 0.9,8.4 -2.8,10.5 l -40,23.1 c -3.7,2.1 -8.4,0.9 -10.5,-2.8 L 191,348.2 c -2.1,-3.7 -0.9,-8.4 2.8,-10.5 z"
       class="a"
       inkscape:connector-curvature="0"
       style="fill:#dddddd" />
    <path
       id="_27"
       d="m 193.8,285.9 40,-23.1 c 3.7,-2.1 8.4,-0.9 10.5,2.8 l 7.7,13.3 c 2.1,3.7 0.9,8.4 -2.8,10.5 l -40,23.1 c -3.7,2.1 -8.4,0.9 -10.5,-2.8 L 191,296.4 c -2.1,-3.7 -0.9,-8.4 2.8,-10.5 z"
       class="a"
       inkscape:connector-curvature="0"
       style="fill:#dddddd" />
    <path
       id="_28"
       d="m 193.8,234.1 40,-23.1 c 3.7,-2.1 8.4,-0.9 10.5,2.8 l 7.7,13.3 c 2.1,3.7 0.9,8.4 -2.8,10.5 l -40,23.1 c -3.7,2.1 -8.4,0.9 -10.5,-2.8 L 191,244.6 c -2.1,-3.7 -0.9,-8.4 2.8,-10.5 z"
       class="a"
       inkscape:connector-curvature="0"
       style="fill:#dddddd" />
  </g>
</svg>
